<mxfile host="Electron" modified="2024-05-11T00:16:05.930Z" agent="Mozilla/5.0 (Macintosh; Intel Mac OS X 10_15_7) AppleWebKit/537.36 (KHTML, like Gecko) draw.io/24.2.5 Chrome/120.0.6099.109 Electron/28.1.0 Safari/537.36" etag="DquNM4evfXLsU31l4L0D" version="24.2.5" type="device">
  <diagram name="ページ1" id="aVvMI3Au1bcrZc1WGVLj">
    <mxGraphModel dx="984" dy="717" grid="1" gridSize="10" guides="1" tooltips="1" connect="1" arrows="1" fold="1" page="1" pageScale="1" pageWidth="1169" pageHeight="1654" math="0" shadow="0">
      <root>
        <mxCell id="0" />
        <mxCell id="1" parent="0" />
        <mxCell id="JP5ZXMJ7knnwvwXOP-VK-32" value="AWS Cloud" style="sketch=0;outlineConnect=0;gradientColor=none;html=1;whiteSpace=wrap;fontSize=12;fontStyle=0;shape=mxgraph.aws4.group;grIcon=mxgraph.aws4.group_aws_cloud;strokeColor=#000000;fillColor=none;verticalAlign=top;align=left;spacingLeft=30;fontColor=#AAB7B8;dashed=0;container=0;" parent="1" vertex="1">
          <mxGeometry x="205" y="350" width="760" height="850" as="geometry" />
        </mxCell>
        <mxCell id="JP5ZXMJ7knnwvwXOP-VK-27" value="&lt;b&gt;Region&lt;/b&gt;&lt;div&gt;(ap-northeast-1(Tokyo))&lt;/div&gt;" style="sketch=0;outlineConnect=0;gradientColor=none;html=1;whiteSpace=wrap;fontSize=12;fontStyle=0;shape=mxgraph.aws4.group;grIcon=mxgraph.aws4.group_region;strokeColor=#00a4a6;fillColor=none;verticalAlign=top;align=left;spacingLeft=30;fontColor=#879196;dashed=1;container=0;" parent="1" vertex="1">
          <mxGeometry x="285" y="420" width="600" height="710" as="geometry" />
        </mxCell>
        <mxCell id="JP5ZXMJ7knnwvwXOP-VK-20" value="&lt;b&gt;VPC&lt;/b&gt;&lt;br&gt;(10.0.0.0/16)" style="sketch=0;outlineConnect=0;gradientColor=none;html=1;whiteSpace=wrap;fontSize=12;fontStyle=0;shape=mxgraph.aws4.group;grIcon=mxgraph.aws4.group_vpc;strokeColor=#00994D;fillColor=none;verticalAlign=top;align=left;spacingLeft=30;fontColor=#879196;dashed=0;container=0;" parent="1" vertex="1">
          <mxGeometry x="337" y="497.5" width="496" height="565" as="geometry" />
        </mxCell>
        <mxCell id="JP5ZXMJ7knnwvwXOP-VK-31" value="&lt;b&gt;IGW&lt;/b&gt;" style="sketch=0;outlineConnect=0;fontColor=#232F3E;gradientColor=none;fillColor=#8C4FFF;strokeColor=none;dashed=0;verticalLabelPosition=bottom;verticalAlign=top;align=center;html=1;fontSize=12;fontStyle=0;aspect=fixed;pointerEvents=1;shape=mxgraph.aws4.internet_gateway;container=0;" parent="1" vertex="1">
          <mxGeometry x="546" y="460" width="78" height="78" as="geometry" />
        </mxCell>
        <mxCell id="JP5ZXMJ7knnwvwXOP-VK-1" value="&lt;b&gt;Availability Zone&lt;/b&gt;&lt;div&gt;(ap-northeast-1a)&lt;/div&gt;" style="fillColor=none;strokeColor=#147EBA;dashed=1;verticalAlign=top;fontStyle=0;fontColor=#147EBA;whiteSpace=wrap;html=1;container=0;" parent="1" vertex="1">
          <mxGeometry x="404" y="570" width="362" height="420" as="geometry" />
        </mxCell>
        <mxCell id="JP5ZXMJ7knnwvwXOP-VK-21" style="edgeStyle=orthogonalEdgeStyle;rounded=0;orthogonalLoop=1;jettySize=auto;html=1;exitX=0.5;exitY=1;exitDx=0;exitDy=0;" parent="1" source="JP5ZXMJ7knnwvwXOP-VK-1" target="JP5ZXMJ7knnwvwXOP-VK-1" edge="1">
          <mxGeometry relative="1" as="geometry" />
        </mxCell>
        <mxCell id="JP5ZXMJ7knnwvwXOP-VK-3" value="&lt;b&gt;Public subnet&lt;/b&gt;&lt;div&gt;(10.0.0.0/20)&lt;br&gt;&lt;/div&gt;" style="points=[[0,0],[0.25,0],[0.5,0],[0.75,0],[1,0],[1,0.25],[1,0.5],[1,0.75],[1,1],[0.75,1],[0.5,1],[0.25,1],[0,1],[0,0.75],[0,0.5],[0,0.25]];outlineConnect=0;gradientColor=none;html=1;whiteSpace=wrap;fontSize=12;fontStyle=0;container=0;pointerEvents=0;collapsible=0;recursiveResize=0;shape=mxgraph.aws4.group;grIcon=mxgraph.aws4.group_security_group;grStroke=0;strokeColor=#7AA116;fillColor=#F2F6E8;verticalAlign=top;align=left;spacingLeft=30;fontColor=#248814;dashed=0;" parent="1" vertex="1">
          <mxGeometry x="490" y="620" width="190" height="160" as="geometry" />
        </mxCell>
        <mxCell id="JP5ZXMJ7knnwvwXOP-VK-6" value="&lt;b&gt;EC2&lt;/b&gt;&lt;br&gt;(RaiseTech-kadai4-ec2)" style="sketch=0;points=[[0,0,0],[0.25,0,0],[0.5,0,0],[0.75,0,0],[1,0,0],[0,1,0],[0.25,1,0],[0.5,1,0],[0.75,1,0],[1,1,0],[0,0.25,0],[0,0.5,0],[0,0.75,0],[1,0.25,0],[1,0.5,0],[1,0.75,0]];outlineConnect=0;fontColor=#232F3E;fillColor=#ED7100;strokeColor=#ffffff;dashed=0;verticalLabelPosition=bottom;verticalAlign=top;align=center;html=1;fontSize=12;fontStyle=0;aspect=fixed;shape=mxgraph.aws4.resourceIcon;resIcon=mxgraph.aws4.ec2;container=0;" parent="1" vertex="1">
          <mxGeometry x="548" y="661" width="74.1" height="74.1" as="geometry" />
        </mxCell>
        <mxCell id="JP5ZXMJ7knnwvwXOP-VK-5" value="&lt;b&gt;Private subnet&lt;/b&gt;&lt;div&gt;(&lt;span style=&quot;background-color: initial;&quot;&gt;10.0.128.0/20&lt;/span&gt;&lt;span style=&quot;background-color: initial;&quot;&gt;)&lt;/span&gt;&lt;/div&gt;" style="points=[[0,0],[0.25,0],[0.5,0],[0.75,0],[1,0],[1,0.25],[1,0.5],[1,0.75],[1,1],[0.75,1],[0.5,1],[0.25,1],[0,1],[0,0.75],[0,0.5],[0,0.25]];outlineConnect=0;gradientColor=none;html=1;whiteSpace=wrap;fontSize=12;fontStyle=0;container=0;pointerEvents=0;collapsible=0;recursiveResize=0;shape=mxgraph.aws4.group;grIcon=mxgraph.aws4.group_security_group;grStroke=0;strokeColor=#00A4A6;fillColor=#E6F6F7;verticalAlign=top;align=left;spacingLeft=30;fontColor=#147EBA;dashed=0;" parent="1" vertex="1">
          <mxGeometry x="490" y="810" width="190" height="160" as="geometry" />
        </mxCell>
        <mxCell id="JP5ZXMJ7knnwvwXOP-VK-7" value="&lt;div&gt;&lt;font color=&quot;#000000&quot;&gt;&lt;b&gt;RDS&lt;/b&gt;&lt;/font&gt;&lt;/div&gt;&lt;font color=&quot;#000000&quot;&gt;(RaiseTech-kadai4-rds)&lt;/font&gt;" style="sketch=0;points=[[0,0,0],[0.25,0,0],[0.5,0,0],[0.75,0,0],[1,0,0],[0,1,0],[0.25,1,0],[0.5,1,0],[0.75,1,0],[1,1,0],[0,0.25,0],[0,0.5,0],[0,0.75,0],[1,0.25,0],[1,0.5,0],[1,0.75,0]];outlineConnect=0;fontColor=#ffffff;fillColor=#0050ef;strokeColor=#FFFFFF;dashed=0;verticalLabelPosition=bottom;verticalAlign=top;align=center;html=1;fontSize=12;fontStyle=0;aspect=fixed;shape=mxgraph.aws4.resourceIcon;resIcon=mxgraph.aws4.rds;container=0;" parent="1" vertex="1">
          <mxGeometry x="547.95" y="851" width="74.1" height="74.1" as="geometry" />
        </mxCell>
        <mxCell id="JP5ZXMJ7knnwvwXOP-VK-26" style="edgeStyle=orthogonalEdgeStyle;rounded=0;orthogonalLoop=1;jettySize=auto;html=1;exitX=1;exitY=0.5;exitDx=0;exitDy=0;exitPerimeter=0;entryX=1;entryY=0.5;entryDx=0;entryDy=0;entryPerimeter=0;" parent="1" source="JP5ZXMJ7knnwvwXOP-VK-6" target="JP5ZXMJ7knnwvwXOP-VK-7" edge="1">
          <mxGeometry relative="1" as="geometry">
            <Array as="points">
              <mxPoint x="660" y="698" />
              <mxPoint x="660" y="888" />
            </Array>
          </mxGeometry>
        </mxCell>
      </root>
    </mxGraphModel>
  </diagram>
</mxfile>
